<svg xmlns="http://www.w3.org/2000/svg" viewBox="0 0 148.57 44.48"><defs><style>.cls-1{fill:#8081b1;}</style></defs><g id="Layer_1" data-name="Layer 1"><path class="cls-1" d="M5.4,19.44A9.46,9.46,0,0,1,3.62,19a8.71,8.71,0,0,1-1.5-.73A8.87,8.87,0,0,1,.9,17.35a7.65,7.65,0,0,1-.9-.91l3.48-3.88a5.39,5.39,0,0,0,1.19,1,3.63,3.63,0,0,0,1.38.56,1.22,1.22,0,0,0,.79-.1.77.77,0,0,0,.41-.59A1,1,0,0,0,7,12.55a7.74,7.74,0,0,0-1.22-1,11.12,11.12,0,0,1-1.36-1.08A5.63,5.63,0,0,1,3.3,9.11a5.32,5.32,0,0,1-.62-1.69,6.06,6.06,0,0,1,0-2.12A6.57,6.57,0,0,1,3.8,2.49,5.81,5.81,0,0,1,5.67.81,6,6,0,0,1,7.94.07a8.1,8.1,0,0,1,2.31,0,8.54,8.54,0,0,1,2.93,1,7.28,7.28,0,0,1,2,1.75L11.62,6.7a4.22,4.22,0,0,0-.92-.92,2.61,2.61,0,0,0-1.11-.5,1.44,1.44,0,0,0-.8.08A.81.81,0,0,0,8.32,6a.8.8,0,0,0,.24.74,10.65,10.65,0,0,0,1.25,1c.36.26.75.57,1.17.94a6.62,6.62,0,0,1,1.16,1.34,6.14,6.14,0,0,1,.79,1.8A5.38,5.38,0,0,1,13,14.17a7.08,7.08,0,0,1-1,2.8,5.61,5.61,0,0,1-1.81,1.73,6.41,6.41,0,0,1-2.29.78A8,8,0,0,1,5.4,19.44Z"/><path class="cls-1" d="M20.58,16.43,18.9,22.12l-5.43-1.6L18.82,2.38,25.3,4.29a8.33,8.33,0,0,1,2.09,1,5.65,5.65,0,0,1,1.69,1.61A5.48,5.48,0,0,1,30,9.17a7.16,7.16,0,0,1-.32,3.11A7.47,7.47,0,0,1,28.26,15a5.86,5.86,0,0,1-2,1.55,5.45,5.45,0,0,1-2.24.53,7.51,7.51,0,0,1-2.28-.29Zm2.31-7.81L21.9,12l.66.2A1.41,1.41,0,0,0,23.69,12a1.85,1.85,0,0,0,.82-1.14,1.64,1.64,0,0,0-.08-1.38,1.61,1.61,0,0,0-.88-.67Z"/><path class="cls-1" d="M34.81,20.25l-.45-.16L32,26.47l-5.22-1.9L33.28,6.79,39.89,9.2a8.69,8.69,0,0,1,2.54,1.37,4.88,4.88,0,0,1,1.88,4.06,7.77,7.77,0,0,1-.5,2.53,6.44,6.44,0,0,1-.8,1.55,6.32,6.32,0,0,1-1,1.11,4.14,4.14,0,0,1-1,.7,3,3,0,0,1-1,.28l.09,8.61-5.77-2.09Zm2-7-1.13,3.11.45.16a1.89,1.89,0,0,0,.52.12,1.31,1.31,0,0,0,.59-.05,1.53,1.53,0,0,0,.55-.34,1.89,1.89,0,0,0,.44-.73,2.06,2.06,0,0,0,.15-.85,1.41,1.41,0,0,0-.18-.61,1.26,1.26,0,0,0-.37-.39,2.74,2.74,0,0,0-.42-.21Z"/><path class="cls-1" d="M48.74,12.48l5.51,2L47.67,32.25l-5.51-2Z"/><path class="cls-1" d="M58.62,26.73l-.08,0-2.66,8.52L51,33.58l6.06-17.92,5.85,2-.15,9.68.1,0,2.8-8.78,4.71,1.59L64.31,38.08l-5.69-1.93Z"/><path class="cls-1" d="M75.05,41.43A7.84,7.84,0,0,1,71.88,40a7.11,7.11,0,0,1-2-2.55A9.16,9.16,0,0,1,69,34,13.77,13.77,0,0,1,69.32,30a14.11,14.11,0,0,1,1.47-3.88,9.65,9.65,0,0,1,2.28-2.72A7.14,7.14,0,0,1,75.94,22a7,7,0,0,1,3.23,0,9.28,9.28,0,0,1,1.93.65,8.37,8.37,0,0,1,1.48.87,5.21,5.21,0,0,1,1,1,6.11,6.11,0,0,1,.69,1L80.4,29.06a3,3,0,0,0-.74-.94,2.7,2.7,0,0,0-1.24-.57,2,2,0,0,0-1.28.08,2.81,2.81,0,0,0-1,.74,4.49,4.49,0,0,0-.81,1.25,8.23,8.23,0,0,0-.52,1.59,9,9,0,0,0-.23,1.62,5.15,5.15,0,0,0,.1,1.49,2.69,2.69,0,0,0,.53,1.16,1.79,1.79,0,0,0,1.06.63,1.64,1.64,0,0,0,.85,0l.36-1.59-1.62-.37,1.12-4.92,6.36,1.44L80.91,41.2a7.79,7.79,0,0,1-2.57.56A11.58,11.58,0,0,1,75.05,41.43Z"/><path class="cls-1" d="M93,25l5.88.06L98.7,44l-5.88-.06Z"/><path class="cls-1" d="M107.93,34.65h-.07l2.25,8.64-5,1.18-4.33-18.41,6-1.41,5,8.29.11,0L109.6,24l4.83-1.14,4.34,18.41-5.85,1.38Z"/><path class="cls-1" d="M133.26,35.08l-5.07,2.64-6.45-12.43-3,1.54-2.27-4.36,11-5.71,2.26,4.36-3,1.54Z"/><path class="cls-1" d="M133.33,24.25a14.64,14.64,0,0,1-2.15-3.55,9.41,9.41,0,0,1-.73-3.44,7.05,7.05,0,0,1,.71-3.11,7.69,7.69,0,0,1,2.13-2.6,7.6,7.6,0,0,1,3-1.51,7,7,0,0,1,3.19,0,9.37,9.37,0,0,1,3.2,1.47,14.34,14.34,0,0,1,3,2.87,14.56,14.56,0,0,1,2.16,3.56,9.54,9.54,0,0,1,.74,3.46,7,7,0,0,1-.68,3.14,7.81,7.81,0,0,1-5.13,4.11,7.15,7.15,0,0,1-3.22,0,9.48,9.48,0,0,1-3.21-1.49A14.7,14.7,0,0,1,133.33,24.25Zm4.59-3.67a8.15,8.15,0,0,0,2.29,2.08,1.58,1.58,0,0,0,2.4-1.92,8.31,8.31,0,0,0-1.52-2.7A8.13,8.13,0,0,0,138.81,16a1.65,1.65,0,0,0-1.95,0,1.64,1.64,0,0,0-.45,1.89A7.94,7.94,0,0,0,137.92,20.58Z"/></g></svg>